<svg width="58" height="58" viewBox="0 0 58 58" fill="none" xmlns="http://www.w3.org/2000/svg">
<path d="M57 29C57 36.3688 54.1535 43.0729 49.5 48.0724C44.3879 53.5647 37.0951 57 29 57M1 29C1 21.6312 3.84654 14.9271 8.5 9.9276C13.6121 4.4353 20.9049 1 29 1" stroke="white" stroke-opacity="0.16"/>
<path d="M29.0001 41.0833C35.6735 41.0833 41.0834 35.6734 41.0834 29C41.0834 22.3265 35.6735 16.9167 29.0001 16.9167C22.3266 16.9167 16.9167 22.3265 16.9167 29C16.9167 35.6734 22.3266 41.0833 29.0001 41.0833Z" stroke="white" stroke-width="2" stroke-linecap="round" stroke-linejoin="round"/>
<path d="M29.0001 36.0833C32.9121 36.0833 36.0834 32.912 36.0834 29C36.0834 25.088 32.9121 21.9167 29.0001 21.9167C25.0881 21.9167 21.9167 25.088 21.9167 29C21.9167 32.912 25.0881 36.0833 29.0001 36.0833Z" stroke="white" stroke-width="2" stroke-linecap="round" stroke-linejoin="round"/>
<path d="M29.0001 31.0833C30.1507 31.0833 31.0834 30.1506 31.0834 29C31.0834 27.8494 30.1507 26.9167 29.0001 26.9167C27.8495 26.9167 26.9167 27.8494 26.9167 29C26.9167 30.1506 27.8495 31.0833 29.0001 31.0833Z" stroke="white" stroke-width="2" stroke-linecap="round" stroke-linejoin="round"/>
</svg>
