<svg width="58" height="58" viewBox="0 0 58 58" fill="none" xmlns="http://www.w3.org/2000/svg">
<path d="M57 29C57 36.3688 54.1535 43.0729 49.5 48.0724C44.3879 53.5647 37.0951 57 29 57M1 29C1 21.6312 3.84654 14.9271 8.5 9.9276C13.6121 4.4353 20.9049 1 29 1" stroke="white" stroke-opacity="0.16"/>
<path d="M17 39.6619H41.7203V41.7219H17V39.6619ZM41.7203 25.148V27.3017H38.6303V35.5418H40.6903V37.6019H18.03V35.5418H20.09V27.3017H17V25.148C16.9999 24.5928 17.1493 24.0479 17.4326 23.5705C17.7159 23.0931 18.1226 22.7008 18.6099 22.4349L27.88 17.3786C28.3338 17.1302 28.8428 17 29.3601 17C29.8775 17 30.3865 17.1302 30.8403 17.3786L40.1104 22.4349C40.5977 22.7008 41.0044 23.0931 41.2877 23.5705C41.571 24.0479 41.7204 24.5928 41.7203 25.148ZM22.1501 35.5418H25.2401V27.3017H22.1501V35.5418ZM27.3001 27.3017V35.5418H31.4202V27.3017H27.3001ZM36.5702 27.3017H33.4802V35.5418H36.5702V27.3017ZM39.6603 25.148C39.6603 24.9629 39.6105 24.7813 39.5161 24.6222C39.4216 24.463 39.2861 24.3323 39.1236 24.2436L29.8535 19.1873C29.7022 19.1047 29.5325 19.0614 29.3601 19.0614C29.1878 19.0614 29.0181 19.1047 28.8668 19.1873L19.5967 24.2436C19.4342 24.3323 19.2987 24.463 19.2042 24.6222C19.1098 24.7813 19.06 24.9629 19.06 25.148V25.2417H39.6603V25.148Z" fill="white"/>
</svg>
