<svg width="58" height="58" viewBox="0 0 58 58" fill="none" xmlns="http://www.w3.org/2000/svg">
<path d="M57 29C57 36.3688 54.1535 43.0729 49.5 48.0724C44.3879 53.5647 37.0951 57 29 57M1 29C1 21.6312 3.84654 14.9271 8.5 9.9276C13.6121 4.4353 20.9049 1 29 1" stroke="#100F19" stroke-opacity="0.16"/>
<path d="M41.0834 29C41.0834 35.6735 35.6736 41.0833 29.0001 41.0833C22.3266 41.0833 16.9167 35.6735 16.9167 29C16.9167 22.3266 22.3266 16.9167 29.0001 16.9167C35.6736 16.9167 41.0834 22.3266 41.0834 29Z" stroke="#100F19" stroke-width="2" stroke-linecap="round" stroke-linejoin="round"/>
<path d="M24.4166 18.1667V24.4167C24.4166 27.1782 22.178 29.4167 19.4166 29.4167H17.3333" stroke="#100F19" stroke-width="2" stroke-linecap="round" stroke-linejoin="round"/>
<path d="M25.6667 39.8333C25.6667 39.8333 26.9167 37.3333 26.9167 34C26.9167 30.4168 30.9226 32.3802 32.0446 26.9055C32.4141 25.102 33.8257 23.5833 35.6667 23.5833H39.0001" stroke="#100F19" stroke-width="2" stroke-linecap="round" stroke-linejoin="round"/>
</svg>
